<?xml version="1.0" encoding="UTF-8" standalone="no"?>
<!-- Created with Inkscape (http://www.inkscape.org/) -->

<svg
   width="297mm"
   height="210mm"
   viewBox="0 0 297 210"
   version="1.1"
   id="svg1"
   xml:space="preserve"
   xmlns="http://www.w3.org/2000/svg"
   xmlns:svg="http://www.w3.org/2000/svg"><defs
     id="defs1" /><g
     id="layer1"><g
       id="g1"
       transform="matrix(1.1202053,0,0,1.1202053,29.867418,-41.763645)"><path
         style="fill:#f7d14f"
         d="m 78.302973,148.13909 c -0.377543,-0.0506 -1.023429,-0.60942 -1.281841,-1.10914 -0.155054,-0.29984 -0.168131,-1.58628 -0.134008,-13.18209 0.04162,-14.14501 0.0086,-13.40873 0.731913,-16.32747 0.451403,-1.82156 0.94569,-3.15105 1.849998,-4.97594 1.314087,-2.65182 2.494382,-4.25777 4.877299,-6.63622 3.28735,-3.28118 7.307173,-5.49339 11.713806,-6.446412 2.441332,-0.527987 2.749207,-0.559412 5.48061,-0.559412 2.62386,0 3.11428,0.04665 5.17361,0.492095 0.26676,0.0577 0.63053,0.131441 0.80837,0.163861 0.50518,0.09209 2.50187,0.750858 3.39518,1.120168 7.20825,2.98 12.63588,9.21781 14.55551,16.72819 0.59385,2.32337 0.79256,4.21087 0.72054,6.84422 -0.10152,3.71174 -0.90728,6.99295 -2.49029,10.14098 -0.68724,1.36667 -0.65945,1.31879 -1.64155,2.82924 -2.81203,4.32486 -7.66033,8.06397 -12.4915,9.63368 -0.65209,0.21187 -1.33113,0.43221 -1.50897,0.48966 -0.17784,0.0574 -0.44461,0.12654 -0.59281,0.15356 -0.1482,0.027 -0.60898,0.12137 -1.02394,0.20967 -0.41497,0.0883 -1.06976,0.22113 -1.45508,0.29518 -0.53141,0.10212 -3.79797,0.14022 -13.526833,0.15776 -7.054432,0.0127 -12.976438,0.003 -13.160014,-0.0216 z m 25.339547,-3.81932 c 1.98169,-0.20455 4.48645,-0.85031 6.06283,-1.56307 1.39269,-0.62971 1.74941,-0.81081 2.55986,-1.29962 2.25233,-1.35845 4.46202,-3.3105 5.77301,-5.0999 1.20311,-1.64214 1.64666,-2.36449 2.36487,-3.85134 1.03025,-2.13285 1.64421,-4.34146 1.9923,-7.1669 0.92785,-7.53142 -2.63287,-15.19644 -8.9938,-19.36061 -0.91876,-0.60147 -2.73906,-1.57406 -3.45373,-1.84534 -0.20748,-0.0788 -0.52275,-0.20687 -0.70059,-0.28469 -0.54367,-0.23788 -2.53148,-0.77732 -3.55686,-0.96524 -1.30562,-0.23928 -4.85237,-0.32849 -6.312256,-0.15877 -5.233977,0.60849 -10.117025,3.11713 -13.4358,6.90258 -3.066957,3.49822 -4.868758,7.73087 -5.207657,12.23343 -0.05354,0.71137 -0.09884,6.08347 -0.100653,11.938 l -0.0033,10.64459 11.020866,-0.0115 c 6.061476,-0.006 11.45739,-0.0565 11.99091,-0.11163 z"
         id="path3" /><path
         style="fill:#62a3f4"
         d="m 60.274688,173.64062 c -1.031343,-0.31451 -1.838714,-1.19339 -2.233165,-2.43095 -0.258894,-0.81225 -0.318569,-2.74569 -0.111831,-3.62317 0.413896,-1.75675 1.392955,-2.88457 2.828728,-3.25854 1.115362,-0.29052 2.095445,-0.1451 2.964723,0.43988 0.300391,0.20215 0.565543,0.36754 0.589226,0.36754 0.02368,0 0.04306,-1.13981 0.04306,-2.53291 v -2.53291 h 0.808377 0.808376 v 6.79036 6.79036 H 65.39257 c -0.686707,0 -0.82563,-0.12441 -0.90273,-0.80843 -0.03006,-0.26673 -0.0767,-0.48497 -0.103639,-0.48497 -0.02694,0 -0.323771,0.21301 -0.65963,0.47335 -0.335859,0.26034 -0.780411,0.55988 -0.987895,0.66565 -0.444821,0.22676 -1.912342,0.31297 -2.463988,0.14474 z m 2.763375,-1.48708 c 0.245001,-0.12499 0.641636,-0.41388 0.881412,-0.64197 l 0.435955,-0.41471 v -2.25827 -2.25827 l -0.404188,-0.3945 c -0.941156,-0.91859 -2.52975,-0.97635 -3.470762,-0.1262 -0.225841,0.20403 -0.525549,0.6252 -0.666018,0.93593 -0.229611,0.50792 -0.255399,0.71733 -0.255399,2.07393 0,1.34969 0.02652,1.56758 0.251224,2.06423 0.298925,0.66069 0.606246,0.9716 1.166689,1.1803 0.545598,0.20318 1.492835,0.12943 2.061087,-0.16047 z m 7.245461,1.38686 c -0.586477,-0.27286 -1.13662,-0.78125 -1.397351,-1.2913 -0.367253,-0.71843 -0.434969,-1.44918 -0.434969,-4.69389 v -3.17431 h 0.800155 0.800155 l 0.03813,3.31434 c 0.03282,2.85311 0.06417,3.37435 0.225283,3.74548 0.270317,0.62271 0.808069,0.95152 1.643099,1.00469 0.800715,0.051 1.565688,-0.24755 2.232653,-0.87132 l 0.404188,-0.37801 v -3.40759 -3.40759 h 0.808376 0.808377 v 4.63469 4.63469 h -0.579612 c -0.680635,0 -0.795285,-0.10146 -0.889246,-0.78698 l -0.06795,-0.49577 -0.498051,0.41415 c -0.858621,0.71398 -1.347595,0.90379 -2.438154,0.94644 -0.810856,0.0317 -1.04965,9.1e-4 -1.455078,-0.18772 z m 21.299936,0.10445 c -0.63117,-0.15824 -1.651714,-0.73847 -2.003428,-1.13905 -0.811038,-0.92372 -1.188876,-2.02133 -1.188876,-3.45366 0,-1.69333 0.452934,-2.87445 1.452503,-3.7877 0.897072,-0.8196 2.366788,-1.21777 3.701559,-1.00281 1.248953,0.20113 2.32081,0.85685 2.89973,1.77391 1.208318,1.9141 0.951479,5.10081 -0.527537,6.54537 -0.256539,0.25056 -0.776266,0.60137 -1.154949,0.77959 -0.589305,0.27733 -0.837796,0.32872 -1.724536,0.35664 -0.569812,0.0179 -1.224322,-0.0146 -1.454466,-0.0723 z m 2.401405,-1.39997 c 0.955462,-0.4335 1.435399,-1.36541 1.50027,-2.91313 0.07927,-1.89124 -0.378179,-3.02217 -1.435344,-3.54853 -1.003534,-0.49967 -2.42928,-0.29026 -3.160532,0.4642 -0.924225,0.95356 -1.132542,3.47167 -0.405764,4.90484 0.292533,0.57686 0.482767,0.76569 1.087275,1.07925 0.589315,0.30568 1.755593,0.31213 2.414095,0.0134 z m 12.237785,1.4188 c -0.56629,-0.14699 -1.4434,-0.68233 -1.84346,-1.12515 -0.9208,-1.01922 -1.37443,-2.77613 -1.13714,-4.40416 0.15314,-1.05071 0.62446,-2.12677 1.18789,-2.71203 0.88231,-0.9165 2.49063,-1.39338 3.88207,-1.15107 0.73043,0.12719 1.80214,0.6197 2.12513,0.9766 0.16677,0.18427 0.15867,0.22081 -0.12871,0.58099 -0.16867,0.2114 -0.36049,0.38436 -0.42627,0.38436 -0.0658,0 -0.40529,-0.1468 -0.75448,-0.32622 -0.8118,-0.41711 -1.54768,-0.50721 -2.31669,-0.28365 -1.17415,0.34133 -1.83455,1.3935 -1.90884,3.0412 -0.0774,1.71788 0.33747,2.83637 1.28475,3.46325 0.37027,0.24504 0.60071,0.30793 1.24806,0.34062 0.8663,0.0437 1.21591,-0.054 1.93951,-0.54209 0.24781,-0.16716 0.52423,-0.30393 0.61427,-0.30393 0.09,0 0.29441,0.17134 0.45414,0.38076 l 0.29042,0.38077 -0.25579,0.27228 c -0.14069,0.14975 -0.60844,0.44656 -1.03944,0.65958 -0.71164,0.35171 -0.88023,0.39034 -1.83452,0.42042 -0.57798,0.0182 -1.19938,-0.005 -1.3809,-0.0525 z m 8.49342,-0.13152 c -1.22455,-0.38793 -2.26428,-1.49393 -2.67542,-2.84592 -0.40051,-1.31702 -0.27688,-3.16893 0.28509,-4.27047 0.79192,-1.5523 2.68668,-2.46048 4.48132,-2.14796 1.89725,0.33039 3.04014,1.65838 3.14543,3.65485 0.0363,0.68917 0.0125,0.92323 -0.10135,0.99534 -0.0819,0.0519 -1.57308,0.095 -3.31378,0.0959 l -3.1649,0.002 0.0731,0.51197 c 0.18868,1.32157 0.62204,2.10537 1.42504,2.57736 0.4729,0.27797 0.61369,0.30585 1.54428,0.30585 0.9714,0 1.06435,-0.0207 1.81131,-0.40419 0.43304,-0.2223 0.85497,-0.40418 0.93762,-0.40418 0.0826,0 0.28469,0.17625 0.44901,0.39168 l 0.29874,0.39167 -0.34713,0.2898 c -1.17796,0.98341 -3.2773,1.35432 -4.84835,0.85661 z m 3.80406,-5.99859 c -0.0808,-0.43878 -0.39148,-1.16325 -0.6173,-1.43933 -0.30666,-0.37492 -1.02693,-0.6355 -1.75658,-0.6355 -1.22326,0 -2.02942,0.52774 -2.42623,1.5883 -0.35914,0.9599 -0.54009,0.89072 2.32961,0.89072 h 2.5449 z m 12.36225,6.05732 c -2.12031,-0.57083 -3.48234,-1.91961 -4.24698,-4.20568 -0.21543,-0.64405 -0.2498,-0.96199 -0.24973,-2.30972 8e-5,-1.42339 0.0265,-1.63994 0.2964,-2.42658 0.71239,-2.07655 2.26306,-3.55798 4.28847,-4.09698 0.74421,-0.19805 2.77784,-0.20505 3.49807,-0.012 0.91935,0.24637 1.7689,0.70718 2.62414,1.42336 0.0205,0.0172 -0.11518,0.25293 -0.30158,0.52386 -0.40776,0.59266 -0.67634,0.63099 -1.33309,0.19023 -0.71227,-0.47803 -1.35029,-0.68111 -2.33676,-0.7438 -3.01751,-0.19175 -4.9507,1.81663 -4.95645,5.14924 -0.005,3.14641 1.82905,5.16985 4.68269,5.16504 1.18964,-0.002 2.12845,-0.31146 2.98386,-0.98354 0.21601,-0.16972 0.46081,-0.30858 0.54399,-0.30858 0.21525,0 0.98845,0.81976 0.90324,0.95764 -0.15405,0.24926 -1.384,1.11491 -1.9197,1.35109 -0.31184,0.1375 -0.82401,0.30481 -1.13816,0.37181 -0.78005,0.16638 -2.6461,0.14103 -3.33841,-0.0453 z m 27.01964,0.0115 c -0.92269,-0.25453 -2.46951,-1.23325 -2.46951,-1.56253 0,-0.15828 0.53237,-0.90986 0.71836,-1.01414 0.11507,-0.0645 0.3761,0.0543 0.88124,0.40107 0.94105,0.64607 1.51061,0.84014 2.49617,0.85057 1.72258,0.0182 2.8362,-1.06848 2.66366,-2.59929 -0.10406,-0.92317 -0.72101,-1.40794 -2.55587,-2.00828 -2.8698,-0.93896 -3.66476,-1.74058 -3.66456,-3.69524 1.1e-4,-1.07547 0.36761,-1.90961 1.15204,-2.61488 1.47582,-1.32688 4.29597,-1.34218 6.04243,-0.0328 0.41302,0.30966 0.42977,0.45814 0.11488,1.01841 -0.29655,0.52763 -0.5151,0.53534 -1.32647,0.0468 -1.27631,-0.76856 -2.93605,-0.73789 -3.79616,0.0701 -0.35664,0.33504 -0.60934,1.08291 -0.54017,1.5986 0.12067,0.89966 0.63254,1.30452 2.45933,1.94514 2.33009,0.81713 3.04569,1.26738 3.48635,2.19358 0.34435,0.72378 0.41867,1.27466 0.28443,2.10821 -0.27113,1.68357 -1.33548,2.86653 -2.97259,3.30384 -0.66805,0.17845 -2.31179,0.17338 -2.97356,-0.009 z m -109.498551,-6.5269 v -6.5748 h 4.095774 4.095773 v 0.7006 0.70059 h -3.179614 -3.179613 v 2.20956 2.20956 h 2.523339 2.523339 l 0.03652,0.65603 c 0.02009,0.36082 0.01631,0.67609 -0.0084,0.7006 -0.0247,0.0245 -1.176637,0.0446 -2.559859,0.0446 H 50.23578 v 2.19788 2.19787 l 0.287338,0.0721 c 0.158036,0.0397 1.528234,0.0659 3.044884,0.0583 1.516651,-0.008 2.818175,-0.0105 2.892276,-0.007 0.09322,0.005 0.134729,0.22311 0.134729,0.70785 v 0.70059 H 52.499234 48.40346 Z m 33.421837,6.33228 c -0.05143,-0.13338 -0.687611,-1.69759 -1.413743,-3.47602 -2.903958,-7.11232 -3.768811,-9.25599 -3.768811,-9.34155 0,-0.11033 1.51726,-0.11665 1.681455,-0.007 0.06523,0.0436 0.172824,0.18227 0.239105,0.30825 0.246732,0.46897 3.826661,9.49335 3.985675,10.0472 l 0.165301,0.57574 0.398076,-1.11466 c 0.815666,-2.28396 3.799696,-9.63445 3.963942,-9.76429 0.174833,-0.13821 1.745984,-0.19637 1.745984,-0.0646 0,0.0979 -3.792976,9.47967 -4.416393,10.92382 -0.115157,0.26677 -0.361418,0.86092 -0.547246,1.32035 l -0.33787,0.83532 h -0.800986 c -0.731092,0 -0.809145,-0.0212 -0.894489,-0.24251 z m 17.55977,-4.39218 v -4.63469 h 0.808374 0.80838 v 4.63469 4.63469 h -0.80838 -0.808374 z m 39.987684,-1.9401 v -6.5748 H 140.23 c 0.76532,0 0.87598,0.026 1.03208,0.24252 0.0962,0.13338 0.78353,1.33382 1.52748,2.66764 0.74396,1.33382 1.74892,3.12842 2.23326,3.98799 0.48433,0.85957 0.94492,1.72049 1.02353,1.91316 0.0786,0.19266 0.17544,0.35029 0.21518,0.35029 0.0397,0 0.20891,-0.27889 0.37593,-0.61975 0.37112,-0.75739 4.47095,-8.21892 4.6194,-8.40712 0.0689,-0.0874 0.40462,-0.13473 0.95534,-0.13473 h 0.84907 v 6.5748 6.57479 h -0.75346 -0.75346 l -0.028,-5.21835 -0.028,-5.21834 -1.03729,1.904 c -2.69638,4.94936 -3.46697,6.33462 -3.60229,6.47573 -0.17861,0.18626 -1.01229,0.17366 -1.19107,-0.018 -0.069,-0.074 -1.10721,-1.90494 -2.30701,-4.0687 -1.1998,-2.16375 -2.23628,-3.99303 -2.30329,-4.06506 -0.0907,-0.0975 -0.11393,1.1907 -0.0909,5.03888 l 0.0309,5.16984 h -0.81234 -0.81234 z m -39.777064,-4.66507 c -0.946345,-0.74574 -0.546791,-2.11672 0.618694,-2.1229 1.11506,-0.006 1.58482,1.47833 0.64856,2.0492 -0.38775,0.23642 -1.014504,0.27287 -1.267254,0.0737 z M 129.80698,121.8334 c 2.00073,-0.0164 5.27465,-0.0164 7.27538,0 2.00073,0.0164 0.36377,0.0299 -3.63769,0.0299 -4.00146,0 -5.63843,-0.0134 -3.63769,-0.0299 z m 11.07475,-0.0677 c 0,-0.0224 0.0849,-0.10726 0.18862,-0.18862 0.17095,-0.13407 0.17477,-0.13026 0.0407,0.0407 -0.14081,0.17954 -0.22932,0.23664 -0.22932,0.14793 z m 0.48503,-0.49822 c 0.0366,-0.0593 0.0909,-0.10779 0.1205,-0.10779 0.0296,0 0.0239,0.0485 -0.0127,0.10779 -0.0366,0.0593 -0.0909,0.10778 -0.1205,0.10778 -0.0296,0 -0.0239,-0.0485 0.0127,-0.10778 z m 0.20885,-3.2874 c -6e-5,-1.60058 0.0149,-2.2704 0.0333,-1.48847 0.0184,0.78193 0.0184,2.0915 1e-4,2.91016 -0.0183,0.81866 -0.0334,0.1789 -0.0334,-1.42169 z m -9.07917,1.26688 6.43495,-0.029 0.0405,-0.64634 0.0405,-0.64634 -0.008,0.67412 -0.008,0.67413 -6.46701,0.001 -6.46701,0.001 z m 6.49112,-3.7459 c 8e-5,-1.30418 0.0156,-1.8229 0.0346,-1.1527 0.0189,0.6702 0.0189,1.73725 -1.5e-4,2.37124 -0.019,0.63398 -0.0345,0.0856 -0.0344,-1.21854 z m 2.58888,-3.9341 c 0,-1.86735 0.0147,-2.63126 0.0326,-1.69759 0.0179,0.93367 0.0179,2.46151 0,3.39518 -0.018,0.93368 -0.0326,0.16976 -0.0326,-1.69759 z m -2.63481,1.40119 c 0,-0.079 0.0323,-0.11138 0.0718,-0.0719 0.0395,0.0395 0.0395,0.10419 0,0.14371 -0.0395,0.0395 -0.0718,0.007 -0.0718,-0.0718 z m 0.0377,-1.07784 c 0,-0.50389 0.0186,-0.71002 0.0413,-0.45808 0.0227,0.25195 0.0227,0.66422 0,0.91616 -0.0227,0.25195 -0.0413,0.0458 -0.0413,-0.45808 z m -0.0166,-1.23951 c 0.002,-0.17784 0.0264,-0.23755 0.0537,-0.13268 0.0273,0.10487 0.0255,0.25038 -0.004,0.32335 -0.0295,0.073 -0.0519,-0.0128 -0.0497,-0.19067 z m -0.0125,-0.5479 c 0.005,-0.12556 0.0307,-0.1511 0.0651,-0.0651 0.0311,0.0778 0.0273,0.17077 -0.009,0.20659 -0.0358,0.0358 -0.0613,-0.0279 -0.0566,-0.14147 z m 0.0362,-2.20058 c 0,-1.0967 0.016,-1.54535 0.0356,-0.997 0.0196,0.54835 0.0196,1.44565 0,1.994 -0.0196,0.54835 -0.0356,0.0997 -0.0356,-0.997 z m 2.58753,-2.04789 c 0,-1.21526 0.0157,-1.71241 0.0349,-1.10478 0.0192,0.60763 0.0192,1.60193 0,2.20956 -0.0192,0.60763 -0.0349,0.11048 -0.0349,-1.10478 z m -2.59777,-0.6467 c 0,-0.38532 0.0196,-0.54296 0.0435,-0.35029 0.0239,0.19266 0.0239,0.50793 0,0.70059 -0.0239,0.19266 -0.0435,0.035 -0.0435,-0.3503 z m -0.12527,-2.04788 c 0,-0.14821 0.0245,-0.20884 0.0544,-0.13473 0.0299,0.0741 0.0299,0.19535 0,0.26945 -0.0299,0.0741 -0.0544,0.0135 -0.0544,-0.13472 z m 2.5783,-0.6018 c 0.005,-0.12556 0.0307,-0.1511 0.0651,-0.0651 0.0311,0.0778 0.0273,0.17077 -0.009,0.20659 -0.0358,0.0358 -0.0613,-0.0278 -0.0566,-0.14147 z m -2.7031,-0.15269 c 0,-0.079 0.0323,-0.11138 0.0719,-0.0719 0.0395,0.0395 0.0395,0.1042 0,0.14372 -0.0395,0.0395 -0.0719,0.007 -0.0719,-0.0719 z m -0.0993,-0.60179 c 0.005,-0.12556 0.0307,-0.1511 0.0651,-0.0651 0.0311,0.0778 0.0273,0.17077 -0.009,0.20659 -0.0358,0.0358 -0.0613,-0.0279 -0.0566,-0.14147 z m 2.68608,0.0629 c 0,-0.079 0.0323,-0.11137 0.0718,-0.0718 0.0395,0.0395 0.0395,0.10419 0,0.14371 -0.0395,0.0395 -0.0718,0.007 -0.0718,-0.0719 z m -2.79387,-0.60179 c 0.005,-0.12556 0.0307,-0.1511 0.0651,-0.0651 0.0311,0.0778 0.0273,0.17077 -0.009,0.20659 -0.0358,0.0358 -0.0613,-0.0279 -0.0566,-0.14147 z m 2.69459,0 c 0.005,-0.12556 0.0307,-0.1511 0.0651,-0.0651 0.0311,0.0778 0.0273,0.17077 -0.009,0.20659 -0.0358,0.0358 -0.0613,-0.0279 -0.0566,-0.14147 z m -2.81088,-0.42215 c 0,-0.0296 0.0242,-0.0539 0.0539,-0.0539 0.0296,0 0.0539,0.0243 0.0539,0.0539 0,0.0296 -0.0242,0.0539 -0.0539,0.0539 -0.0296,0 -0.0539,-0.0242 -0.0539,-0.0539 z m 2.69459,-0.0539 c 0,-0.079 0.0323,-0.11138 0.0719,-0.0719 0.0395,0.0395 0.0395,0.10419 0,0.14371 -0.0395,0.0395 -0.0719,0.007 -0.0719,-0.0719 z m -2.80237,-0.26946 c 0,-0.0296 0.0242,-0.0539 0.0539,-0.0539 0.0296,0 0.0539,0.0242 0.0539,0.0539 0,0.0296 -0.0243,0.0539 -0.0539,0.0539 -0.0296,0 -0.0539,-0.0242 -0.0539,-0.0539 z m 2.69459,-0.21557 c 0,-0.0296 0.0242,-0.0539 0.0539,-0.0539 0.0296,0 0.0539,0.0242 0.0539,0.0539 0,0.0296 -0.0242,0.0539 -0.0539,0.0539 -0.0296,0 -0.0539,-0.0242 -0.0539,-0.0539 z m -30.50274,-0.10778 c 0,-0.0296 0.0243,-0.0539 0.0539,-0.0539 0.0296,0 0.0539,0.0242 0.0539,0.0539 0,0.0296 -0.0242,0.0539 -0.0539,0.0539 -0.0296,0 -0.0539,-0.0243 -0.0539,-0.0539 z m 27.70036,-0.0539 c 0,-0.079 0.0323,-0.11138 0.0719,-0.0719 0.0395,0.0395 0.0395,0.10419 0,0.14371 -0.0395,0.0395 -0.0719,0.007 -0.0719,-0.0718 z m 2.69459,-0.161679 c 0,-0.02964 0.0242,-0.05389 0.0539,-0.05389 0.0296,0 0.0539,0.02425 0.0539,0.05389 0,0.02964 -0.0243,0.05389 -0.0539,0.05389 -0.0296,0 -0.0539,-0.0243 -0.0539,-0.05389 z m -32.22727,-0.107783 c 0,-0.02964 0.0242,-0.05389 0.0539,-0.05389 0.0296,0 0.0539,0.02425 0.0539,0.05389 0,0.02964 -0.0243,0.05389 -0.0539,0.05389 -0.0296,0 -0.0539,-0.02425 -0.0539,-0.05389 z m 1.9401,0 c 0,-0.02964 0.0242,-0.05389 0.0539,-0.05389 0.0296,0 0.0539,0.02425 0.0539,0.05389 0,0.02964 -0.0243,0.05389 -0.0539,0.05389 -0.0296,0 -0.0539,-0.02425 -0.0539,-0.05389 z m 27.4848,0 c 0,-0.02964 0.0242,-0.05389 0.0539,-0.05389 0.0296,0 0.0539,0.02425 0.0539,0.05389 0,0.02964 -0.0242,0.05389 -0.0539,0.05389 -0.0296,0 -0.0539,-0.02425 -0.0539,-0.05389 z m -27.37701,-0.269459 c 0,-0.07904 0.0323,-0.111377 0.0718,-0.07186 0.0395,0.03952 0.0395,0.104191 0,0.143711 -0.0395,0.03952 -0.0718,0.0072 -0.0718,-0.07185 z m 30.0716,0 c 0,-0.07904 0.0323,-0.111377 0.0718,-0.07186 0.0395,0.03952 0.0395,0.104191 0,0.143711 -0.0395,0.03952 -0.0718,0.0072 -0.0718,-0.07185 z m -2.80237,-0.05389 c 0,-0.02964 0.0243,-0.05389 0.0539,-0.05389 0.0296,0 0.0539,0.02425 0.0539,0.05389 0,0.02964 -0.0242,0.05389 -0.0539,0.05389 -0.0296,0 -0.0539,-0.02425 -0.0539,-0.05389 z M 108.00779,99.27965 c 0,-0.07904 0.0323,-0.111376 0.0718,-0.07186 0.0395,0.03952 0.0395,0.104191 0,0.143712 -0.0395,0.03952 -0.0718,0.0072 -0.0718,-0.07186 z m 2.80237,0.05389 c 0,-0.02964 0.0242,-0.05389 0.0539,-0.05389 0.0296,0 0.0539,0.02425 0.0539,0.05389 0,0.02964 -0.0243,0.05389 -0.0539,0.05389 -0.0296,0 -0.0539,-0.02425 -0.0539,-0.05389 z m 27.05366,-0.05389 c 0,-0.07904 0.0323,-0.111376 0.0719,-0.07186 0.0395,0.03952 0.0395,0.104191 0,0.143712 -0.0395,0.03952 -0.0719,0.0072 -0.0719,-0.07186 z m 2.80238,-0.05389 c 0,-0.02964 0.0242,-0.05389 0.0539,-0.05389 0.0296,0 0.0539,0.02425 0.0539,0.05389 0,0.02964 -0.0243,0.05389 -0.0539,0.05389 -0.0296,0 -0.0539,-0.02425 -0.0539,-0.05389 z m -29.74826,-0.161675 c 0,-0.07904 0.0323,-0.111376 0.0719,-0.07186 0.0395,0.03952 0.0395,0.104191 0,0.143712 -0.0395,0.03952 -0.0719,0.0072 -0.0719,-0.07186 z m -2.80237,-0.05389 c 0,-0.02964 0.0243,-0.05389 0.0539,-0.05389 0.0296,0 0.0539,0.02425 0.0539,0.05389 0,0.02964 -0.0242,0.05389 -0.0539,0.05389 -0.0296,0 -0.0539,-0.02425 -0.0539,-0.05389 z m 29.64047,0 c 0,-0.02964 0.0242,-0.05389 0.0539,-0.05389 0.0296,0 0.0539,0.02425 0.0539,0.05389 0,0.02964 -0.0242,0.05389 -0.0539,0.05389 -0.0296,0 -0.0539,-0.02425 -0.0539,-0.05389 z m 2.80237,-0.107783 c 0,-0.02964 0.0242,-0.05389 0.0539,-0.05389 0.0296,0 0.0539,0.02425 0.0539,0.05389 0,0.02964 -0.0243,0.05389 -0.0539,0.05389 -0.0296,0 -0.0539,-0.02425 -0.0539,-0.05389 z m -29.53271,-0.10779 c 0,-0.02964 0.0242,-0.05389 0.0539,-0.05389 0.0296,0 0.0539,0.02425 0.0539,0.05389 0,0.02964 -0.0243,0.05389 -0.0539,0.05389 -0.0296,0 -0.0539,-0.02425 -0.0539,-0.05389 z m 26.62253,0 c 0,-0.02964 0.0242,-0.05389 0.0539,-0.05389 0.0296,0 0.0539,0.02425 0.0539,0.05389 0,0.02964 -0.0242,0.05389 -0.0539,0.05389 -0.0296,0 -0.0539,-0.02425 -0.0539,-0.05389 z m -29.42491,-0.107783 c 0,-0.02964 0.0243,-0.05389 0.0539,-0.05389 0.0296,0 0.0539,0.02425 0.0539,0.05389 0,0.02964 -0.0242,0.05389 -0.0539,0.05389 -0.0296,0 -0.0539,-0.02425 -0.0539,-0.05389 z m 32.22728,0 c 0,-0.02964 0.0242,-0.05389 0.0539,-0.05389 0.0296,0 0.0539,0.02425 0.0539,0.05389 0,0.02964 -0.0242,0.05389 -0.0539,0.05389 -0.0296,0 -0.0539,-0.02425 -0.0539,-0.05389 z m -29.31712,-0.107784 c 0,-0.02964 0.0242,-0.05389 0.0539,-0.05389 0.0296,0 0.0539,0.02425 0.0539,0.05389 0,0.02964 -0.0242,0.05389 -0.0539,0.05389 -0.0296,0 -0.0539,-0.02425 -0.0539,-0.05389 z m -2.80237,-0.161675 c 0,-0.07904 0.0323,-0.111376 0.0718,-0.07186 0.0395,0.03952 0.0395,0.104191 0,0.143712 -0.0395,0.03952 -0.0718,0.0072 -0.0718,-0.07186 z m 2.91015,-0.05389 c 0,-0.02964 0.0243,-0.05389 0.0539,-0.05389 0.0296,0 0.0539,0.02425 0.0539,0.05389 0,0.02964 -0.0243,0.05389 -0.0539,0.05389 -0.0296,0 -0.0539,-0.02425 -0.0539,-0.05389 z m 29.10155,0 c 0,-0.02964 0.0243,-0.05389 0.0539,-0.05389 0.0296,0 0.0539,0.02425 0.0539,0.05389 0,0.02964 -0.0242,0.05389 -0.0539,0.05389 -0.0296,0 -0.0539,-0.02425 -0.0539,-0.05389 z m -31.90392,-0.215567 c 0,-0.02964 0.0242,-0.05389 0.0539,-0.05389 0.0296,0 0.0539,0.02425 0.0539,0.05389 0,0.02964 -0.0243,0.05389 -0.0539,0.05389 -0.0296,0 -0.0539,-0.02425 -0.0539,-0.05389 z m 2.91016,0 c 0,-0.02964 0.0242,-0.05389 0.0539,-0.05389 0.0296,0 0.0539,0.02425 0.0539,0.05389 0,0.02964 -0.0242,0.05389 -0.0539,0.05389 -0.0296,0 -0.0539,-0.02425 -0.0539,-0.05389 z m 25.88359,-0.242513 c -0.11761,-0.274853 -0.11495,-0.281192 0.0366,-0.08718 0.0899,0.115072 0.16343,0.248454 0.16343,0.296405 0,0.163821 -0.0731,0.08734 -0.20002,-0.209222 z m 3.00239,0.188621 c 0,-0.07904 0.0323,-0.111376 0.0719,-0.07185 0.0395,0.03952 0.0395,0.10419 0,0.143711 -0.0395,0.03952 -0.0719,0.0072 -0.0719,-0.07186 z m -28.7782,-0.161675 c 0,-0.02964 0.0243,-0.05389 0.0539,-0.05389 0.0296,0 0.0539,0.02425 0.0539,0.05389 0,0.02964 -0.0242,0.05389 -0.0539,0.05389 -0.0296,0 -0.0539,-0.02425 -0.0539,-0.05389 z m -2.91015,-0.107784 c 0,-0.02964 0.0243,-0.05389 0.0539,-0.05389 0.0296,0 0.0539,0.02425 0.0539,0.05389 0,0.02964 -0.0242,0.05389 -0.0539,0.05389 -0.0296,0 -0.0539,-0.02425 -0.0539,-0.05389 z m 2.04788,0 c 0,-0.02964 0.0242,-0.05389 0.0539,-0.05389 0.0296,0 0.0539,0.02425 0.0539,0.05389 0,0.02964 -0.0243,0.05389 -0.0539,0.05389 -0.0296,0 -0.0539,-0.02425 -0.0539,-0.05389 z m 27.4848,0 c 0,-0.02964 0.0242,-0.05389 0.0539,-0.05389 0.0296,0 0.0539,0.02425 0.0539,0.05389 0,0.02964 -0.0242,0.05389 -0.0539,0.05389 -0.0296,0 -0.0539,-0.02425 -0.0539,-0.05389 z m 2.04789,0 c 0,-0.02964 0.0242,-0.05389 0.0539,-0.05389 0.0296,0 0.0539,0.02425 0.0539,0.05389 0,0.02964 -0.0242,0.05389 -0.0539,0.05389 -0.0296,0 -0.0539,-0.02425 -0.0539,-0.05389 z m -28.56264,-0.107783 c 0,-0.02964 0.0243,-0.05389 0.0539,-0.05389 0.0296,0 0.0539,0.02425 0.0539,0.05389 0,0.02964 -0.0242,0.05389 -0.0539,0.05389 -0.0296,0 -0.0539,-0.02425 -0.0539,-0.05389 z m -2.91015,-0.107784 c 0,-0.02964 0.0242,-0.05389 0.0539,-0.05389 0.0296,0 0.0539,0.02425 0.0539,0.05389 0,0.02964 -0.0243,0.05389 -0.0539,0.05389 -0.0296,0 -0.0539,-0.02425 -0.0539,-0.05389 z m 31.365,0 c 0,-0.02964 0.0243,-0.05389 0.0539,-0.05389 0.0296,0 0.0539,0.02425 0.0539,0.05389 0,0.02964 -0.0242,0.05389 -0.0539,0.05389 -0.0296,0 -0.0539,-0.02425 -0.0539,-0.05389 z M 111.72629,97.44733 c 0.0366,-0.05928 0.0909,-0.107783 0.1205,-0.107783 0.0297,0 0.0239,0.0485 -0.0127,0.107783 -0.0366,0.05928 -0.0909,0.107784 -0.1205,0.107784 -0.0296,0 -0.0239,-0.0485 0.0127,-0.107784 z m 25.27524,0.05389 c 0,-0.02964 0.0242,-0.05389 0.0539,-0.05389 0.0296,0 0.0539,0.02425 0.0539,0.05389 0,0.02964 -0.0242,0.05389 -0.0539,0.05389 -0.0296,0 -0.0539,-0.02425 -0.0539,-0.05389 z m -28.23929,-0.107784 c 0,-0.02964 0.0242,-0.05389 0.0539,-0.05389 0.0296,0 0.0539,0.02425 0.0539,0.05389 0,0.02964 -0.0243,0.05389 -0.0539,0.05389 -0.0296,0 -0.0539,-0.02425 -0.0539,-0.05389 z m 31.14944,0 c 0,-0.02964 0.0243,-0.05389 0.0539,-0.05389 0.0296,0 0.0539,0.02425 0.0539,0.05389 0,0.02964 -0.0243,0.05389 -0.0539,0.05389 -0.0296,0 -0.0539,-0.02425 -0.0539,-0.05389 z m -3.01794,-0.107783 c 0,-0.02964 0.0242,-0.05389 0.0539,-0.05389 0.0296,0 0.0539,0.02425 0.0539,0.05389 0,0.02964 -0.0243,0.05389 -0.0539,0.05389 -0.0296,0 -0.0539,-0.02425 -0.0539,-0.05389 z m -28.02371,-0.107784 c 0,-0.02964 0.0242,-0.05389 0.0539,-0.05389 0.0296,0 0.0539,0.02425 0.0539,0.05389 0,0.02964 -0.0243,0.05389 -0.0539,0.05389 -0.0296,0 -0.0539,-0.02425 -0.0539,-0.05389 z m 3.01793,0 c 0,-0.02964 0.0243,-0.05389 0.0539,-0.05389 0.0296,0 0.0539,0.02425 0.0539,0.05389 0,0.02964 -0.0242,0.05389 -0.0539,0.05389 -0.0296,0 -0.0539,-0.02425 -0.0539,-0.05389 z m 27.91594,0 c 0,-0.02964 0.0242,-0.05389 0.0539,-0.05389 0.0296,0 0.0539,0.02425 0.0539,0.05389 0,0.02964 -0.0242,0.05389 -0.0539,0.05389 -0.0296,0 -0.0539,-0.02425 -0.0539,-0.05389 z m -30.82609,-0.215567 c 0,-0.02964 0.0242,-0.05389 0.0539,-0.05389 0.0296,0 0.0539,0.02425 0.0539,0.05389 0,0.02964 -0.0242,0.05389 -0.0539,0.05389 -0.0296,0 -0.0539,-0.02425 -0.0539,-0.05389 z m 3.07183,-0.05389 c 0.0366,-0.05928 0.0909,-0.107783 0.12051,-0.107783 0.0296,0 0.0239,0.0485 -0.0127,0.107783 -0.0366,0.05928 -0.0909,0.107784 -0.1205,0.107784 -0.0296,0 -0.0239,-0.0485 0.0127,-0.107784 z m 24.62853,0.05389 c 0,-0.02964 0.0243,-0.05389 0.0539,-0.05389 0.0296,0 0.0539,0.02425 0.0539,0.05389 0,0.02964 -0.0242,0.05389 -0.0539,0.05389 -0.0296,0 -0.0539,-0.02425 -0.0539,-0.05389 z m 3.01794,0 c 0,-0.02964 0.0242,-0.05389 0.0539,-0.05389 0.0296,0 0.0539,0.02425 0.0539,0.05389 0,0.02964 -0.0242,0.05389 -0.0539,0.05389 -0.0297,0 -0.0539,-0.02425 -0.0539,-0.05389 z m -30.61052,-0.215567 c 0,-0.02964 0.0243,-0.05389 0.0539,-0.05389 0.0296,0 0.0539,0.02425 0.0539,0.05389 0,0.02964 -0.0243,0.05389 -0.0539,0.05389 -0.0296,0 -0.0539,-0.02425 -0.0539,-0.05389 z m 30.50274,0 c 0,-0.02964 0.0242,-0.05389 0.0539,-0.05389 0.0296,0 0.0539,0.02425 0.0539,0.05389 0,0.02964 -0.0242,0.05389 -0.0539,0.05389 -0.0296,0 -0.0539,-0.02425 -0.0539,-0.05389 z m -27.37702,-0.107783 c 0,-0.02964 0.0243,-0.05389 0.0539,-0.05389 0.0296,0 0.0539,0.02425 0.0539,0.05389 0,0.02964 -0.0243,0.05389 -0.0539,0.05389 -0.0296,0 -0.0539,-0.02425 -0.0539,-0.05389 z m 24.2513,0 c 0,-0.02964 0.0242,-0.05389 0.0539,-0.05389 0.0296,0 0.0539,0.02425 0.0539,0.05389 0,0.02964 -0.0242,0.05389 -0.0539,0.05389 -0.0296,0 -0.0539,-0.02425 -0.0539,-0.05389 z m -27.26923,-0.107784 c 0,-0.02964 0.0242,-0.05389 0.0539,-0.05389 0.0296,0 0.0539,0.02425 0.0539,0.05389 0,0.02964 -0.0242,0.05389 -0.0539,0.05389 -0.0296,0 -0.0539,-0.02425 -0.0539,-0.05389 z m 30.28717,0 c 0,-0.02964 0.0242,-0.05389 0.0539,-0.05389 0.0296,0 0.0539,0.02425 0.0539,0.05389 0,0.02964 -0.0243,0.05389 -0.0539,0.05389 -0.0296,0 -0.0539,-0.02425 -0.0539,-0.05389 z m -3.24726,-0.242513 c -0.13407,-0.17095 -0.13025,-0.174763 0.0407,-0.04069 0.17954,0.140805 0.23663,0.229315 0.14792,0.229315 -0.0224,0 -0.10726,-0.08488 -0.18862,-0.188621 z m -26.93213,0.02695 c 0,-0.02964 0.0243,-0.05389 0.0539,-0.05389 0.0296,0 0.0539,0.02425 0.0539,0.05389 0,0.02964 -0.0242,0.05389 -0.0539,0.05389 -0.0296,0 -0.0539,-0.02425 -0.0539,-0.05389 z m 3.17961,-0.05389 c 0.0366,-0.05928 0.0909,-0.107783 0.12051,-0.107783 0.0296,0 0.0239,0.0485 -0.0127,0.107783 -0.0366,0.05928 -0.0909,0.107784 -0.12051,0.107784 -0.0296,0 -0.0239,-0.0485 0.0127,-0.107784 z m 26.89199,0.05389 c 0,-0.02964 0.0242,-0.05389 0.0539,-0.05389 0.0297,0 0.0539,0.02425 0.0539,0.05389 0,0.02964 -0.0242,0.05389 -0.0539,0.05389 -0.0296,0 -0.0539,-0.02425 -0.0539,-0.05389 z m -0.17196,-0.286112 c -0.0476,-0.0771 -0.0296,-0.09518 0.0475,-0.04753 0.0684,0.0423 0.12443,0.09829 0.12443,0.124437 0,0.08991 -0.0952,0.04734 -0.17196,-0.07691 z m -29.68407,-0.03724 c 0,-0.02964 0.0243,-0.05389 0.0539,-0.05389 0.0296,0 0.0539,0.02425 0.0539,0.05389 0,0.02964 -0.0242,0.05389 -0.0539,0.05389 -0.0296,0 -0.0539,-0.02425 -0.0539,-0.05389 z m 26.45056,-0.07054 c -0.0477,-0.0771 -0.0296,-0.09518 0.0475,-0.04753 0.12425,0.07679 0.16681,0.171967 0.0769,0.171967 -0.0262,0 -0.0821,-0.056 -0.12444,-0.124437 z m -23.16317,-0.09113 c 0.0366,-0.05928 0.0909,-0.107783 0.12051,-0.107783 0.0296,0 0.0239,0.0485 -0.0127,0.107783 -0.0366,0.05928 -0.0909,0.107784 -0.12051,0.107784 -0.0296,0 -0.0239,-0.0485 0.0127,-0.107784 z M 109.6784,95.7228 c 0.0366,-0.05928 0.0909,-0.107784 0.12051,-0.107784 0.0296,0 0.0239,0.0485 -0.0127,0.107784 -0.0366,0.05928 -0.0909,0.107783 -0.12051,0.107783 -0.0296,0 -0.0239,-0.0485 0.0127,-0.107783 z m 29.37101,0.05389 c 0,-0.02964 0.0242,-0.05389 0.0539,-0.05389 0.0296,0 0.0539,0.02425 0.0539,0.05389 0,0.02964 -0.0243,0.05389 -0.0539,0.05389 -0.0296,0 -0.0539,-0.02425 -0.0539,-0.05389 z m -3.46282,-0.350296 c -0.13407,-0.170951 -0.13026,-0.174763 0.0407,-0.04069 0.17954,0.140805 0.23663,0.229315 0.14792,0.229315 -0.0224,0 -0.10726,-0.08488 -0.18862,-0.188621 z m 3.29085,0.06418 c -0.0476,-0.0771 -0.0296,-0.09518 0.0475,-0.04753 0.12424,0.07679 0.16681,0.171968 0.0769,0.171968 -0.0261,0 -0.0821,-0.056 -0.12444,-0.124437 z m -29.03736,-0.03724 c 0,-0.02964 0.0242,-0.05389 0.0539,-0.05389 0.0296,0 0.0539,0.02425 0.0539,0.05389 0,0.02964 -0.0243,0.05389 -0.0539,0.05389 -0.0296,0 -0.0539,-0.02425 -0.0539,-0.05389 z m 3.34129,-0.09459 c 0,-0.02238 0.0849,-0.107262 0.18862,-0.188621 0.17095,-0.134069 0.17476,-0.130257 0.0407,0.04069 -0.1408,0.17954 -0.22931,0.236636 -0.22931,0.147927 z m -3.17962,-0.174873 c 0.0366,-0.05928 0.0909,-0.107784 0.12051,-0.107784 0.0296,0 0.0239,0.0485 -0.0127,0.107784 -0.0366,0.05928 -0.0909,0.107784 -0.12051,0.107784 -0.0296,0 -0.0239,-0.0485 0.0127,-0.107784 z m 28.66013,-0.01665 c -0.0477,-0.0771 -0.0296,-0.09518 0.0475,-0.04753 0.12425,0.07679 0.16681,0.171968 0.0769,0.171968 -0.0261,0 -0.0821,-0.056 -0.12443,-0.124437 z m -4.30105,-1.034443 c -0.53353,-0.513468 -0.77604,-0.781854 -0.53892,-0.596415 0.42605,0.333182 1.65633,1.544278 1.55918,1.53486 -0.0276,-0.0027 -0.48673,-0.424977 -1.02026,-0.938445 z m -20.37109,0.296611 c 0.29195,-0.296404 0.55507,-0.538917 0.58471,-0.538917 0.0296,0 -0.18498,0.242513 -0.47692,0.538917 -0.29195,0.296405 -0.55507,0.538918 -0.58471,0.538918 -0.0296,0 0.18498,-0.242513 0.47692,-0.538918 z m 24.45657,0.414481 c -0.0477,-0.0771 -0.0296,-0.09518 0.0475,-0.04753 0.0684,0.0423 0.12444,0.09829 0.12444,0.124437 0,0.08991 -0.0952,0.04734 -0.17197,-0.07691 z M 110.3251,94.75274 c 0.0366,-0.05928 0.0909,-0.107784 0.12051,-0.107784 0.0296,0 0.0239,0.0485 -0.0127,0.107784 -0.0366,0.05928 -0.0909,0.107783 -0.12051,0.107783 -0.0296,0 -0.0239,-0.0485 0.0127,-0.107783 z m 0.21557,-0.323351 c 0.0366,-0.05928 0.0909,-0.107783 0.12051,-0.107783 0.0296,0 0.0239,0.0485 -0.0127,0.107783 -0.0366,0.05928 -0.0909,0.107784 -0.1205,0.107784 -0.0296,0 -0.0239,-0.0485 0.0127,-0.107784 z m 27.58229,-0.01665 c -0.0477,-0.0771 -0.0296,-0.09518 0.0475,-0.04753 0.0684,0.0423 0.12444,0.09829 0.12444,0.124437 0,0.08991 -0.0952,0.04734 -0.17197,-0.07691 z m -27.31283,-0.347392 c 0,-0.02238 0.0849,-0.107261 0.18862,-0.188621 0.17095,-0.134068 0.17476,-0.130256 0.0407,0.04069 -0.1408,0.17954 -0.22931,0.236636 -0.22931,0.147926 z m 26.93213,-0.147926 c -0.13407,-0.170951 -0.13025,-0.174763 0.0407,-0.04069 0.17954,0.140805 0.23663,0.229316 0.14792,0.229316 -0.0224,0 -0.10726,-0.08488 -0.18862,-0.188621 z M 114.9059,93.621013 c 0.13923,-0.148203 0.2774,-0.269459 0.30704,-0.269459 0.0296,0 -0.06,0.121256 -0.19925,0.269459 -0.13923,0.148202 -0.2774,0.269459 -0.30704,0.269459 -0.0296,0 0.06,-0.121257 0.19925,-0.269459 z m 22.3583,-0.296405 -0.31657,-0.350296 0.3503,0.31657 c 0.32653,0.295087 0.39984,0.384023 0.31657,0.384023 -0.0186,0 -0.17618,-0.157634 -0.3503,-0.350297 z m -25.91515,0.101003 c 0,-0.01855 0.15763,-0.176183 0.35029,-0.350296 l 0.3503,-0.31657 -0.31657,0.350296 c -0.29509,0.326525 -0.38402,0.399839 -0.38402,0.31657 z m 4.14966,-0.289624 c 0.0366,-0.05928 0.0909,-0.107784 0.12051,-0.107784 0.0296,0 0.0239,0.0485 -0.0127,0.107784 -0.0366,0.05928 -0.0909,0.107783 -0.12051,0.107783 -0.0296,0 -0.0239,-0.0485 0.0127,-0.107783 z m 17.60886,-0.08084 c -0.13407,-0.17095 -0.13026,-0.174763 0.0407,-0.04069 0.10375,0.08136 0.18863,0.166239 0.18863,0.188621 0,0.08871 -0.0885,0.03161 -0.22932,-0.147927 z m -17.17772,-0.242513 c 0.0366,-0.05928 0.0909,-0.107783 0.1205,-0.107783 0.0296,0 0.0239,0.0485 -0.0127,0.107783 -0.0366,0.05928 -0.0909,0.107784 -0.12051,0.107784 -0.0296,0 -0.0239,-0.0485 0.0127,-0.107784 z m 16.80393,-0.01665 c -0.0477,-0.0771 -0.0296,-0.09518 0.0475,-0.04753 0.0684,0.0423 0.12444,0.09829 0.12444,0.124437 0,0.08991 -0.0952,0.04734 -0.17197,-0.07691 z m -20.14522,-0.630048 c 0.29194,-0.296405 0.55506,-0.538917 0.5847,-0.538917 0.0296,0 -0.18497,0.242512 -0.47692,0.538917 -0.29195,0.296405 -0.55506,0.538918 -0.58471,0.538918 -0.0296,0 0.18498,-0.242513 0.47693,-0.538918 z m 3.66464,0.431134 c 0.0366,-0.05928 0.0909,-0.107783 0.1205,-0.107783 0.0296,0 0.0239,0.0485 -0.0127,0.107783 -0.0366,0.05928 -0.0909,0.107784 -0.12051,0.107784 -0.0296,0 -0.0239,-0.0485 0.0127,-0.107784 z m 16.15723,-0.01665 c -0.0477,-0.0771 -0.0296,-0.09518 0.0475,-0.04753 0.12425,0.07679 0.16682,0.171968 0.0769,0.171968 -0.0261,0 -0.0821,-0.056 -0.12444,-0.124437 z m 4.05218,-0.03724 c 0,-0.02964 0.0242,-0.05389 0.0539,-0.05389 0.0296,0 0.0539,0.02425 0.0539,0.05389 0,0.02964 -0.0242,0.05389 -0.0539,0.05389 -0.0296,0 -0.0539,-0.02425 -0.0539,-0.05389 z m -19.88606,-0.161676 c 0.0366,-0.05928 0.0909,-0.107783 0.1205,-0.107783 0.0296,0 0.0239,0.0485 -0.0127,0.107783 -0.0366,0.05928 -0.0909,0.107784 -0.1205,0.107784 -0.0296,0 -0.0239,-0.0485 0.0127,-0.107784 z m 15.51053,-0.01665 c -0.0476,-0.0771 -0.0296,-0.09518 0.0475,-0.04753 0.0684,0.0423 0.12444,0.09829 0.12444,0.124437 0,0.08991 -0.0952,0.04734 -0.17197,-0.07691 z m -15.24107,-0.145022 c 0,-0.02964 0.0242,-0.05389 0.0539,-0.05389 0.0296,0 0.0539,0.02425 0.0539,0.05389 0,0.02964 -0.0242,0.05389 -0.0539,0.05389 -0.0296,0 -0.0539,-0.02425 -0.0539,-0.05389 z m 14.98191,0 c 0,-0.02964 0.0242,-0.05389 0.0539,-0.05389 0.0296,0 0.0539,0.02425 0.0539,0.05389 0,0.02964 -0.0242,0.05389 -0.0539,0.05389 -0.0296,0 -0.0539,-0.02425 -0.0539,-0.05389 z m 3.98218,-0.350297 -0.37144,-0.404188 0.40419,0.37144 c 0.37621,0.345729 0.45375,0.436937 0.37144,0.436937 -0.018,0 -0.19989,-0.181885 -0.40419,-0.404189 z m -18.74853,0.242513 c 0,-0.02964 0.0242,-0.05389 0.0539,-0.05389 0.0296,0 0.0539,0.02425 0.0539,0.05389 0,0.02964 -0.0242,0.05389 -0.0539,0.05389 -0.0297,0 -0.0539,-0.02425 -0.0539,-0.05389 z m 14.4866,-0.07054 c -0.0477,-0.0771 -0.0296,-0.09518 0.0475,-0.04753 0.0684,0.0423 0.12443,0.0983 0.12443,0.124437 0,0.08991 -0.0952,0.04734 -0.17196,-0.07691 z m -14.16325,-0.145022 c 0,-0.02964 0.0243,-0.05389 0.0539,-0.05389 0.0296,0 0.0539,0.02425 0.0539,0.05389 0,0.02964 -0.0243,0.05389 -0.0539,0.05389 -0.0296,0 -0.0539,-0.02425 -0.0539,-0.05389 z m 13.90408,0 c 0,-0.02964 0.0243,-0.05389 0.0539,-0.05389 0.0296,0 0.0539,0.02425 0.0539,0.05389 0,0.02964 -0.0242,0.05389 -0.0539,0.05389 -0.0296,0 -0.0539,-0.02425 -0.0539,-0.05389 z m -13.68851,-0.107783 c 0,-0.02964 0.0243,-0.05389 0.0539,-0.05389 0.0296,0 0.0539,0.02425 0.0539,0.05389 0,0.02964 -0.0242,0.05389 -0.0539,0.05389 -0.0296,0 -0.0539,-0.02425 -0.0539,-0.05389 z m 13.47294,0 c 0,-0.02964 0.0242,-0.05389 0.0539,-0.05389 0.0296,0 0.0539,0.02425 0.0539,0.05389 0,0.02964 -0.0243,0.05389 -0.0539,0.05389 -0.0296,0 -0.0539,-0.02425 -0.0539,-0.05389 z m -13.25737,-0.107784 c 0,-0.02964 0.0243,-0.05389 0.0539,-0.05389 0.0296,0 0.0539,0.02425 0.0539,0.05389 0,0.02964 -0.0242,0.05389 -0.0539,0.05389 -0.0296,0 -0.0539,-0.02425 -0.0539,-0.05389 z m 13.0418,0 c 0,-0.02964 0.0243,-0.05389 0.0539,-0.05389 0.0296,0 0.0539,0.02425 0.0539,0.05389 0,0.02964 -0.0243,0.05389 -0.0539,0.05389 -0.0296,0 -0.0539,-0.02425 -0.0539,-0.05389 z m -12.82623,-0.107783 c 0,-0.02964 0.0242,-0.05389 0.0539,-0.05389 0.0296,0 0.0539,0.02425 0.0539,0.05389 0,0.02964 -0.0242,0.05389 -0.0539,0.05389 -0.0296,0 -0.0539,-0.02425 -0.0539,-0.05389 z m 12.61067,0 c 0,-0.02964 0.0242,-0.05389 0.0539,-0.05389 0.0296,0 0.0539,0.02425 0.0539,0.05389 0,0.02964 -0.0242,0.05389 -0.0539,0.05389 -0.0296,0 -0.0539,-0.02425 -0.0539,-0.05389 z m -17.24537,-0.09459 c 0,-0.02238 0.0849,-0.107262 0.18862,-0.188621 0.17096,-0.134069 0.17477,-0.130257 0.0407,0.04069 -0.14081,0.17954 -0.22932,0.236636 -0.22932,0.147927 z m 4.85026,-0.0132 c 0,-0.02964 0.0242,-0.05389 0.0539,-0.05389 0.0296,0 0.0539,0.02425 0.0539,0.05389 0,0.02964 -0.0243,0.05389 -0.0539,0.05389 -0.0296,0 -0.0539,-0.02425 -0.0539,-0.05389 z m 12.17954,0 c 0,-0.02964 0.0242,-0.05389 0.0539,-0.05389 0.0296,0 0.0539,0.02425 0.0539,0.05389 0,0.02964 -0.0243,0.05389 -0.0539,0.05389 -0.0296,0 -0.0539,-0.02425 -0.0539,-0.05389 z m 4.62653,-0.242513 -0.2613,-0.296404 0.29641,0.261301 c 0.16302,0.143715 0.2964,0.277097 0.2964,0.296404 0,0.08453 -0.0873,0.01573 -0.33151,-0.261301 z m -16.55457,0.116766 c 0.0395,-0.03952 0.10419,-0.03952 0.14371,0 0.0395,0.03952 0.007,0.07185 -0.0719,0.07185 -0.079,0 -0.11137,-0.03234 -0.0718,-0.07185 z m 11.49691,-0.03593 c -0.0889,-0.05747 -0.11318,-0.104483 -0.0539,-0.104483 0.0593,0 0.18054,0.04702 0.26946,0.104483 0.0889,0.05746 0.11318,0.104483 0.0539,0.104483 -0.0593,0 -0.18054,-0.04702 -0.26946,-0.104483 z m -11.20949,-0.05389 c 0,-0.02964 0.0243,-0.05389 0.0539,-0.05389 0.0296,0 0.0539,0.02425 0.0539,0.05389 0,0.02964 -0.0242,0.05389 -0.0539,0.05389 -0.0296,0 -0.0539,-0.02425 -0.0539,-0.05389 z m 0.21557,-0.107783 c 0,-0.02964 0.0243,-0.05389 0.0539,-0.05389 0.0296,0 0.0539,0.02425 0.0539,0.05389 0,0.02964 -0.0242,0.05389 -0.0539,0.05389 -0.0296,0 -0.0539,-0.02425 -0.0539,-0.05389 z m 10.67057,0 c 0,-0.02964 0.0242,-0.05389 0.0539,-0.05389 0.0296,0 0.0539,0.02425 0.0539,0.05389 0,0.02964 -0.0243,0.05389 -0.0539,0.05389 -0.0296,0 -0.0539,-0.02425 -0.0539,-0.05389 z m -15.7364,-0.09459 c 0,-0.02238 0.0849,-0.107262 0.18862,-0.188622 0.17095,-0.134068 0.17477,-0.130256 0.0407,0.04069 -0.14081,0.17954 -0.22932,0.236636 -0.22932,0.147927 z m 5.38918,-0.0132 c 0,-0.02964 0.0242,-0.05389 0.0539,-0.05389 0.0296,0 0.0539,0.02425 0.0539,0.05389 0,0.02964 -0.0243,0.05389 -0.0539,0.05389 -0.0296,0 -0.0539,-0.02425 -0.0539,-0.05389 z m 10.05979,-0.01796 c 0.0395,-0.03952 0.10419,-0.03952 0.14371,0 0.0395,0.03952 0.007,0.07186 -0.0718,0.07186 -0.079,0 -0.11138,-0.03234 -0.0719,-0.07186 z m -11.89211,-0.08982 c 0,-0.02964 0.0242,-0.05389 0.0539,-0.05389 0.0296,0 0.0539,0.02425 0.0539,0.05389 0,0.02964 -0.0242,0.05389 -0.0539,0.05389 -0.0296,0 -0.0539,-0.02425 -0.0539,-0.05389 z m 2.08381,-0.01796 c 0.0395,-0.03952 0.10419,-0.03952 0.14371,0 0.0395,0.03952 0.007,0.07185 -0.0718,0.07185 -0.079,0 -0.11138,-0.03234 -0.0719,-0.07185 z m 9.48495,0 c 0.0395,-0.03952 0.10419,-0.03952 0.14371,0 0.0395,0.03952 0.007,0.07185 -0.0719,0.07185 -0.079,0 -0.11138,-0.03234 -0.0719,-0.07185 z m 2.11975,0.01796 c 0,-0.02964 0.0242,-0.05389 0.0539,-0.05389 0.0296,0 0.0539,0.02425 0.0539,0.05389 0,0.02964 -0.0242,0.05389 -0.0539,0.05389 -0.0296,0 -0.0539,-0.02425 -0.0539,-0.05389 z m 3.38488,-0.07055 c -0.0477,-0.0771 -0.0296,-0.09518 0.0475,-0.04753 0.12425,0.07679 0.16682,0.171967 0.0769,0.171967 -0.0261,0 -0.0821,-0.056 -0.12444,-0.124437 z m -14.59437,-0.03724 c 0,-0.02964 0.0243,-0.05389 0.0539,-0.05389 0.0296,0 0.0539,0.02425 0.0539,0.05389 0,0.02964 -0.0242,0.05389 -0.0539,0.05389 -0.0296,0 -0.0539,-0.02425 -0.0539,-0.05389 z m 8.76639,-0.01796 c 0.0395,-0.03952 0.10419,-0.03952 0.14371,0 0.0395,0.03952 0.007,0.07186 -0.0719,0.07186 -0.079,0 -0.11138,-0.03234 -0.0719,-0.07186 z m -14.31724,-0.143711 c 0.0366,-0.05928 0.0909,-0.107784 0.1205,-0.107784 0.0296,0 0.0239,0.0485 -0.0127,0.107784 -0.0366,0.05928 -0.0909,0.107783 -0.1205,0.107783 -0.0296,0 -0.0239,-0.0485 0.0127,-0.107783 z m 5.8742,0.05389 c 0,-0.02964 0.0242,-0.05389 0.0539,-0.05389 0.0296,0 0.0539,0.02425 0.0539,0.05389 0,0.02964 -0.0243,0.05389 -0.0539,0.05389 -0.0296,0 -0.0539,-0.02425 -0.0539,-0.05389 z m 8.08376,0 c 0,-0.02964 0.0242,-0.05389 0.0539,-0.05389 0.0296,0 0.0539,0.02425 0.0539,0.05389 0,0.02964 -0.0242,0.05389 -0.0539,0.05389 -0.0297,0 -0.0539,-0.02425 -0.0539,-0.05389 z m 5.80657,-0.13473 c -0.13407,-0.170951 -0.13026,-0.174763 0.0407,-0.04069 0.10374,0.08136 0.18862,0.166239 0.18862,0.188621 0,0.08871 -0.0885,0.03161 -0.22931,-0.147927 z m -13.53105,0.009 c 0.0395,-0.03952 0.10419,-0.03952 0.14371,0 0.0395,0.03952 0.007,0.07186 -0.0719,0.07186 -0.079,0 -0.11137,-0.03234 -0.0718,-0.07186 z m 7.32928,0 c 0.0395,-0.03952 0.10419,-0.03952 0.14371,0 0.0395,0.03952 0.007,0.07186 -0.0719,0.07186 -0.079,0 -0.11137,-0.03234 -0.0718,-0.07186 z m -6.8465,-0.109556 c 0.0778,-0.03114 0.17077,-0.02731 0.20658,0.0085 0.0358,0.03582 -0.0278,0.06129 -0.14146,0.05661 -0.12556,-0.0052 -0.1511,-0.03071 -0.0651,-0.06512 z m 6.41536,0.0018 c 0.0395,-0.03952 0.10419,-0.03952 0.14371,0 0.0395,0.03952 0.007,0.07185 -0.0718,0.07185 -0.079,0 -0.11138,-0.03234 -0.0719,-0.07185 z m -12.75438,-0.08982 c 0,-0.02964 0.0243,-0.05389 0.0539,-0.05389 0.0296,0 0.0539,0.02425 0.0539,0.05389 0,0.02964 -0.0243,0.05389 -0.0539,0.05389 -0.0296,0 -0.0539,-0.02425 -0.0539,-0.05389 z m 6.87794,-0.01974 c 0.0778,-0.03113 0.17077,-0.02731 0.20658,0.0085 0.0358,0.03581 -0.0278,0.06129 -0.14147,0.05661 -0.12556,-0.0052 -0.1511,-0.03071 -0.0651,-0.06512 z m 5.33753,0.0018 c 0.0395,-0.03952 0.10419,-0.03952 0.14371,0 0.0395,0.03952 0.007,0.07186 -0.0719,0.07186 -0.079,0 -0.11138,-0.03234 -0.0719,-0.07186 z m 6.79803,-0.05258 c -0.0477,-0.0771 -0.0296,-0.09518 0.0475,-0.04753 0.12425,0.07679 0.16681,0.171968 0.0769,0.171968 -0.0262,0 -0.0821,-0.056 -0.12444,-0.124437 z m -11.54051,-0.0552 c 0.0395,-0.03952 0.10419,-0.03952 0.14371,0 0.0395,0.03952 0.007,0.07185 -0.0719,0.07185 -0.079,0 -0.11138,-0.03233 -0.0719,-0.07185 z m 4.14742,-0.0018 c 0.0778,-0.03114 0.17077,-0.02731 0.20659,0.0085 0.0358,0.03582 -0.0279,0.06129 -0.14147,0.05661 -0.12556,-0.0052 -0.1511,-0.03071 -0.0651,-0.06512 z m -11.29706,-0.08805 c 0,-0.02964 0.0242,-0.05389 0.0539,-0.05389 0.0296,0 0.0539,0.02425 0.0539,0.05389 0,0.02964 -0.0242,0.05389 -0.0539,0.05389 -0.0296,0 -0.0539,-0.02425 -0.0539,-0.05389 z m 8.00498,-0.0208 c 0.10487,-0.02733 0.25038,-0.02553 0.32335,0.004 0.073,0.02953 -0.0128,0.05188 -0.19067,0.04969 -0.17785,-0.0022 -0.23755,-0.02635 -0.13268,-0.05368 z m 2.26345,0 c 0.10487,-0.02733 0.25038,-0.02553 0.32335,0.004 0.073,0.02953 -0.0128,0.05188 -0.19067,0.04969 -0.17784,-0.0022 -0.23755,-0.02635 -0.13268,-0.05368 z m 8.16255,0.0208 c 0,-0.02964 0.0242,-0.05389 0.0539,-0.05389 0.0296,0 0.0539,0.02425 0.0539,0.05389 0,0.02964 -0.0243,0.05389 -0.0539,0.05389 -0.0296,0 -0.0539,-0.02425 -0.0539,-0.05389 z m -18.16152,-0.161675 c 0.0366,-0.05928 0.0909,-0.107784 0.1205,-0.107784 0.0296,0 0.0239,0.0485 -0.0127,0.107784 -0.0366,0.05928 -0.0909,0.107783 -0.1205,0.107783 -0.0296,0 -0.0239,-0.0485 0.0127,-0.107783 z m 17.83817,-0.05389 c 0,-0.02964 0.0243,-0.05389 0.0539,-0.05389 0.0296,0 0.0539,0.02425 0.0539,0.05389 0,0.02964 -0.0243,0.05389 -0.0539,0.05389 -0.0296,0 -0.0539,-0.02425 -0.0539,-0.05389 z M 115.66039,89.84863 c 0,-0.02964 0.0242,-0.05389 0.0539,-0.05389 0.0296,0 0.0539,0.02425 0.0539,0.05389 0,0.02964 -0.0242,0.05389 -0.0539,0.05389 -0.0296,0 -0.0539,-0.02425 -0.0539,-0.05389 z m 17.11063,-0.115541 c -0.40294,-0.2186 -0.37841,-0.309646 0.0269,-0.100026 0.17784,0.09197 0.32335,0.190217 0.32335,0.218335 0,0.06936 -0.0116,0.06545 -0.3503,-0.118309 z m -16.89507,0.0078 c 0,-0.02964 0.0243,-0.05389 0.0539,-0.05389 0.0296,0 0.0539,0.02425 0.0539,0.05389 0,0.02964 -0.0242,0.05389 -0.0539,0.05389 -0.0296,0 -0.0539,-0.02425 -0.0539,-0.05389 z m 0.21557,-0.107784 c 0,-0.02964 0.0242,-0.05389 0.0539,-0.05389 0.0296,0 0.0539,0.02425 0.0539,0.05389 0,0.02964 -0.0243,0.05389 -0.0539,0.05389 -0.0296,0 -0.0539,-0.02425 -0.0539,-0.05389 z m 0.32335,-0.215567 c 0,-0.02964 0.0243,-0.05389 0.0539,-0.05389 0.0296,0 0.0539,0.02425 0.0539,0.05389 0,0.02964 -0.0243,0.05389 -0.0539,0.05389 -0.0296,0 -0.0539,-0.02425 -0.0539,-0.05389 z m 15.84418,0 c 0,-0.02964 0.0242,-0.05389 0.0539,-0.05389 0.0296,0 0.0539,0.02425 0.0539,0.05389 0,0.02964 -0.0242,0.05389 -0.0539,0.05389 -0.0296,0 -0.0539,-0.02425 -0.0539,-0.05389 z m -15.62861,-0.107783 c 0,-0.02964 0.0243,-0.05389 0.0539,-0.05389 0.0296,0 0.0539,0.02425 0.0539,0.05389 0,0.02964 -0.0242,0.05389 -0.0539,0.05389 -0.0296,0 -0.0539,-0.02425 -0.0539,-0.05389 z m 15.41304,0 c 0,-0.02964 0.0243,-0.05389 0.0539,-0.05389 0.0296,0 0.0539,0.02425 0.0539,0.05389 0,0.02964 -0.0243,0.05389 -0.0539,0.05389 -0.0296,0 -0.0539,-0.02425 -0.0539,-0.05389 z m -15.19747,-0.107784 c 0,-0.02964 0.0242,-0.05389 0.0539,-0.05389 0.0296,0 0.0539,0.02425 0.0539,0.05389 0,0.02964 -0.0242,0.05389 -0.0539,0.05389 -0.0296,0 -0.0539,-0.02425 -0.0539,-0.05389 z m 14.98191,0 c 0,-0.02964 0.0242,-0.05389 0.0539,-0.05389 0.0296,0 0.0539,0.02425 0.0539,0.05389 0,0.02964 -0.0242,0.05389 -0.0539,0.05389 -0.0296,0 -0.0539,-0.02425 -0.0539,-0.05389 z m -14.76635,-0.107783 c 0,-0.02964 0.0242,-0.05389 0.0539,-0.05389 0.0296,0 0.0539,0.02425 0.0539,0.05389 0,0.02964 -0.0242,0.05389 -0.0539,0.05389 -0.0297,0 -0.0539,-0.02425 -0.0539,-0.05389 z m 14.55078,0 c 0,-0.02964 0.0242,-0.05389 0.0539,-0.05389 0.0296,0 0.0539,0.02425 0.0539,0.05389 0,0.02964 -0.0243,0.05389 -0.0539,0.05389 -0.0296,0 -0.0539,-0.02425 -0.0539,-0.05389 z m -14.22743,-0.107784 c 0,-0.02964 0.0243,-0.05389 0.0539,-0.05389 0.0296,0 0.0539,0.02425 0.0539,0.05389 0,0.02964 -0.0243,0.05389 -0.0539,0.05389 -0.0296,0 -0.0539,-0.02425 -0.0539,-0.05389 z m 14.01186,0 c 0,-0.02964 0.0242,-0.05389 0.0539,-0.05389 0.0296,0 0.0539,0.02425 0.0539,0.05389 0,0.02964 -0.0243,0.05389 -0.0539,0.05389 -0.0296,0 -0.0539,-0.02425 -0.0539,-0.05389 z m -13.79629,-0.107783 c 0,-0.02964 0.0243,-0.05389 0.0539,-0.05389 0.0296,0 0.0539,0.02425 0.0539,0.05389 0,0.02964 -0.0242,0.05389 -0.0539,0.05389 -0.0296,0 -0.0539,-0.02425 -0.0539,-0.05389 z m 13.47294,0 c 0,-0.02964 0.0242,-0.05389 0.0539,-0.05389 0.0296,0 0.0539,0.02425 0.0539,0.05389 0,0.02964 -0.0243,0.05389 -0.0539,0.05389 -0.0296,0 -0.0539,-0.02425 -0.0539,-0.05389 z M 117.85199,88.75279 c 0.0395,-0.03952 0.10419,-0.03952 0.14371,0 0.0395,0.03952 0.007,0.07186 -0.0719,0.07186 -0.079,0 -0.11137,-0.03234 -0.0718,-0.07186 z m 13.00587,0.01796 c 0,-0.02964 0.0243,-0.05389 0.0539,-0.05389 0.0296,0 0.0539,0.02425 0.0539,0.05389 0,0.02964 -0.0243,0.05389 -0.0539,0.05389 -0.0296,0 -0.0539,-0.02425 -0.0539,-0.05389 z m -12.71845,-0.10778 c 0,-0.02964 0.0242,-0.05389 0.0539,-0.05389 0.0296,0 0.0539,0.02425 0.0539,0.05389 0,0.02964 -0.0243,0.05389 -0.0539,0.05389 -0.0296,0 -0.0539,-0.02425 -0.0539,-0.05389 z m 12.3951,0 c 0,-0.02964 0.0243,-0.05389 0.0539,-0.05389 0.0296,0 0.0539,0.02425 0.0539,0.05389 0,0.02964 -0.0242,0.05389 -0.0539,0.05389 -0.0296,0 -0.0539,-0.02425 -0.0539,-0.05389 z m -12.17953,-0.107783 c 0,-0.02964 0.0243,-0.05389 0.0539,-0.05389 0.0296,0 0.0539,0.02425 0.0539,0.05389 0,0.02964 -0.0243,0.05389 -0.0539,0.05389 -0.0296,0 -0.0539,-0.02425 -0.0539,-0.05389 z m 11.96397,0 c 0,-0.02964 0.0242,-0.05389 0.0539,-0.05389 0.0296,0 0.0539,0.02425 0.0539,0.05389 0,0.02964 -0.0242,0.05389 -0.0539,0.05389 -0.0296,0 -0.0539,-0.02425 -0.0539,-0.05389 z m -11.64062,-0.107784 c 0,-0.02964 0.0242,-0.05389 0.0539,-0.05389 0.0296,0 0.0539,0.02425 0.0539,0.05389 0,0.02964 -0.0242,0.05389 -0.0539,0.05389 -0.0296,0 -0.0539,-0.02425 -0.0539,-0.05389 z m 11.31727,0 c 0,-0.02964 0.0242,-0.05389 0.0539,-0.05389 0.0296,0 0.0539,0.02425 0.0539,0.05389 0,0.02964 -0.0242,0.05389 -0.0539,0.05389 -0.0296,0 -0.0539,-0.02425 -0.0539,-0.05389 z M 119.00168,88.33962 c 0,-0.02964 0.0243,-0.05389 0.0539,-0.05389 0.0296,0 0.0539,0.02425 0.0539,0.05389 0,0.02964 -0.0242,0.05389 -0.0539,0.05389 -0.0296,0 -0.0539,-0.02425 -0.0539,-0.05389 z m 10.67057,0 c 0,-0.02964 0.0242,-0.05389 0.0539,-0.05389 0.0296,0 0.0539,0.02425 0.0539,0.05389 0,0.02964 -0.0243,0.05389 -0.0539,0.05389 -0.0296,0 -0.0539,-0.02425 -0.0539,-0.05389 z m -10.31129,-0.125748 c 0.0395,-0.03952 0.10419,-0.03952 0.14371,0 0.0395,0.03952 0.007,0.07186 -0.0719,0.07186 -0.079,0 -0.11138,-0.03234 -0.0718,-0.07186 z m 9.98794,0.01796 c 0,-0.02964 0.0243,-0.05389 0.0539,-0.05389 0.0296,0 0.0539,0.02425 0.0539,0.05389 0,0.02964 -0.0242,0.05389 -0.0539,0.05389 -0.0296,0 -0.0539,-0.02425 -0.0539,-0.05389 z m -9.66459,-0.125747 c 0.0395,-0.03952 0.10419,-0.03952 0.14371,0 0.0395,0.03952 0.007,0.07186 -0.0719,0.07186 -0.079,0 -0.11137,-0.03233 -0.0718,-0.07186 z m 9.34123,0.01796 c 0,-0.02964 0.0243,-0.05389 0.0539,-0.05389 0.0296,0 0.0539,0.02425 0.0539,0.05389 0,0.02964 -0.0242,0.05389 -0.0539,0.05389 -0.0296,0 -0.0539,-0.02425 -0.0539,-0.05389 z m -8.85845,-0.12752 c 0.0778,-0.03114 0.17077,-0.02731 0.20658,0.0085 0.0358,0.03581 -0.0278,0.06129 -0.14146,0.05661 -0.12557,-0.0052 -0.15111,-0.03071 -0.0651,-0.06512 z m 8.35546,0.0018 c 0.0395,-0.03952 0.1042,-0.03952 0.14372,0 0.0395,0.03952 0.007,0.07186 -0.0719,0.07186 -0.079,0 -0.11138,-0.03234 -0.0719,-0.07186 z m -7.97598,-0.107783 c 0.0395,-0.03952 0.10419,-0.03952 0.14372,0 0.0395,0.03952 0.007,0.07186 -0.0719,0.07186 -0.079,0 -0.11138,-0.03234 -0.0719,-0.07186 z m 7.54485,0 c 0.0395,-0.03952 0.10419,-0.03952 0.14371,0 0.0395,0.03952 0.007,0.07186 -0.0719,0.07186 -0.079,0 -0.11138,-0.03234 -0.0719,-0.07186 z m -7.00593,-0.107784 c 0.0395,-0.03952 0.10419,-0.03952 0.14371,0 0.0395,0.03952 0.007,0.07186 -0.0719,0.07186 -0.079,0 -0.11138,-0.03234 -0.0719,-0.07186 z m 6.46701,0 c 0.0395,-0.03952 0.10419,-0.03952 0.14371,0 0.0395,0.03952 0.007,0.07186 -0.0718,0.07186 -0.079,0 -0.11138,-0.03234 -0.0719,-0.07186 z m -5.87644,-0.109556 c 0.0778,-0.03113 0.17077,-0.02731 0.20658,0.0085 0.0358,0.03582 -0.0278,0.06129 -0.14147,0.05661 -0.12556,-0.0052 -0.1511,-0.03071 -0.0651,-0.06512 z m 5.33753,0.0018 c 0.0395,-0.03952 0.10419,-0.03952 0.14371,0 0.0395,0.03952 0.007,0.07185 -0.0719,0.07185 -0.079,0 -0.11138,-0.03234 -0.0719,-0.07185 z m -4.53384,-0.110621 c 0.10487,-0.02733 0.25037,-0.02553 0.32335,0.004 0.073,0.02952 -0.0128,0.05188 -0.19067,0.04969 -0.17785,-0.0022 -0.23755,-0.02635 -0.13268,-0.05368 z m 3.50217,-0.0015 c 0.13407,-0.02578 0.32808,-0.0248 0.43113,0.0022 0.10305,0.02698 -0.007,0.04807 -0.24377,0.04687 -0.23712,-0.0012 -0.32144,-0.02327 -0.18736,-0.04905 z"
         id="path2" /><path
         style="fill:#213d8b"
         d="m 126.18456,121.51 c -0.0307,-0.16302 -0.0856,-0.58742 -0.12205,-0.9431 -0.0365,-0.35569 -0.0911,-0.79221 -0.12144,-0.97006 l -0.0551,-0.32335 h 6.5548 6.5548 l -0.006,-7.97598 c -0.005,-7.0983 -0.0262,-8.08866 -0.19307,-8.99992 -0.73252,-4.000169 -2.94262,-7.464711 -6.11593,-9.587305 -2.52447,-1.688586 -4.79675,-2.437774 -7.75119,-2.555626 -1.29799,-0.05178 -1.78206,-0.02431 -2.85626,0.16206 -2.91853,0.506355 -5.34766,1.684909 -7.62781,3.700832 -1.39293,1.231509 -3.25419,4.087149 -3.80702,5.840928 -0.14861,0.471461 -0.23244,0.598741 -0.36133,0.548601 -0.0923,-0.0359 -0.62859,-0.21447 -1.19176,-0.39681 -0.56317,-0.182343 -1.04299,-0.347412 -1.06627,-0.366819 -0.0745,-0.06215 0.54694,-1.683072 0.97596,-2.545427 1.48305,-2.981058 4.00145,-5.655671 6.87217,-7.298462 5.07362,-2.903407 11.37894,-3.019448 16.49938,-0.303648 3.34116,1.772091 5.92417,4.466305 7.54478,7.869578 0.60304,1.266383 0.98922,2.389613 1.32517,3.854258 0.23025,1.00386 0.23548,1.20913 0.26661,10.46588 l 0.0318,9.44194 -0.34717,0.33942 -0.34716,0.33942 h -7.30025 -7.30026 z M 110.70235,97.82457 c 0,-0.02964 -0.0243,-0.05389 -0.0539,-0.05389 -0.0296,0 -0.0539,0.02425 -0.0539,0.05389 0,0.02964 0.0242,0.05389 0.0539,0.05389 0.0296,0 0.0539,-0.02425 0.0539,-0.05389 z m 27.48479,0 c 0,-0.02964 -0.0242,-0.05389 -0.0539,-0.05389 -0.0296,0 -0.0539,0.02425 -0.0539,0.05389 0,0.02964 0.0242,0.05389 0.0539,0.05389 0.0296,0 0.0539,-0.02425 0.0539,-0.05389 z m -20.58665,-6.898145 c 0,-0.02964 -0.0242,-0.05389 -0.0539,-0.05389 -0.0296,0 -0.0539,0.02425 -0.0539,0.05389 0,0.02964 0.0242,0.05389 0.0539,0.05389 0.0296,0 0.0539,-0.02425 0.0539,-0.05389 z m 13.68851,0 c 0,-0.02964 -0.0242,-0.05389 -0.0539,-0.05389 -0.0296,0 -0.0539,0.02425 -0.0539,0.05389 0,0.02964 0.0242,0.05389 0.0539,0.05389 0.0296,0 0.0539,-0.02425 0.0539,-0.05389 z"
         id="path1" /></g></g></svg>
